<svg width="19" height="65" viewBox="0 0 19 65" fill="none" xmlns="http://www.w3.org/2000/svg">
<path d="M11.9846 60.5982C12.0106 60.7054 12.0002 60.8214 11.9586 60.9107L10.1356 64.3393C10.1044 64.3929 10.0627 64.4286 10.0158 64.4286C9.96897 64.4286 9.92209 64.3929 9.89085 64.3393L8.04189 60.9107C8.00023 60.8214 7.98981 60.7054 8.01585 60.5982C8.04189 60.5 8.09919 60.4286 8.16689 60.4286H9.33356V49.2857C9.33356 49.125 9.40647 49 9.50023 49H10.5002C10.594 49 10.6669 49.125 10.6669 49.2857V60.4286H11.8336C11.9013 60.4286 11.9586 60.4911 11.9846 60.5982Z" fill="#2B7278"/>
<path d="M9.92969 36.3281C9.5599 37.6146 9.10677 38.5521 8.57031 39.1406C8.02865 39.724 7.36198 40.0156 6.57031 40.0156C5.67448 40.0156 4.9349 39.6589 4.35156 38.9453C3.76302 38.2266 3.46875 37.2943 3.46875 36.1484C3.46875 35.3672 3.61979 34.6719 3.92188 34.0625C4.22396 33.4479 4.64063 32.974 5.17188 32.6406C5.70313 32.3021 6.28385 32.1328 6.91406 32.1328V33.6406C6.22656 33.6406 5.6875 33.8594 5.29688 34.2969C4.90104 34.7344 4.70312 35.3516 4.70312 36.1484C4.70312 36.888 4.86719 37.4661 5.19531 37.8828C5.51823 38.2943 5.96875 38.5 6.54688 38.5C7.01042 38.5 7.40365 38.3047 7.72656 37.9141C8.04427 37.5182 8.33594 36.849 8.60156 35.9062C8.86719 34.9583 9.16146 34.2188 9.48438 33.6875C9.80208 33.151 10.1745 32.7552 10.6016 32.5C11.0286 32.2396 11.5312 32.1094 12.1094 32.1094C13.0312 32.1094 13.7708 32.4688 14.3281 33.1875C14.8802 33.9062 15.1562 34.8672 15.1562 36.0703C15.1562 36.8516 15.0078 37.5807 14.7109 38.2578C14.4089 38.9349 13.9974 39.4583 13.4766 39.8281C12.9557 40.1927 12.3646 40.375 11.7031 40.375V38.8672C12.3906 38.8672 12.9349 38.6146 13.3359 38.1094C13.7318 37.599 13.9297 36.9193 13.9297 36.0703C13.9297 35.2786 13.7682 34.6719 13.4453 34.25C13.1224 33.8281 12.6823 33.6172 12.125 33.6172C11.5677 33.6172 11.138 33.8125 10.8359 34.2031C10.5286 34.5938 10.2266 35.3021 9.92969 36.3281ZM13.9766 27.0156C13.9766 26.5 13.8203 26.0495 13.5078 25.6641C13.1953 25.2786 12.8047 25.0651 12.3359 25.0234V23.6562C12.8203 23.6823 13.2813 23.849 13.7188 24.1562C14.1563 24.4635 14.5052 24.875 14.7656 25.3906C15.026 25.901 15.1563 26.4427 15.1562 27.0156C15.1562 28.1667 14.7734 29.0833 14.0078 29.7656C13.237 30.4427 12.1849 30.7812 10.8516 30.7812H10.6094C9.78646 30.7812 9.05469 30.6302 8.41406 30.3281C7.77344 30.026 7.27604 29.5938 6.92188 29.0312C6.56771 28.4635 6.39063 27.7943 6.39063 27.0234C6.39063 26.0755 6.67448 25.2891 7.24219 24.6641C7.8099 24.0339 8.54688 23.6979 9.45313 23.6562V25.0234C8.90625 25.0651 8.45833 25.2734 8.10938 25.6484C7.75521 26.0182 7.57813 26.4766 7.57813 27.0234C7.57813 27.7578 7.84375 28.3281 8.375 28.7344C8.90104 29.1354 9.66406 29.3359 10.6641 29.3359H10.9375C11.9115 29.3359 12.6615 29.1354 13.1875 28.7344C13.7135 28.3333 13.9766 27.7604 13.9766 27.0156ZM7.84375 17.9453C7.80729 18.1641 7.78906 18.401 7.78906 18.6562C7.78906 19.6042 8.19271 20.2474 9 20.5859H15V22.0312H6.54688V20.625L7.52344 20.6016C6.76823 20.1276 6.39063 19.4557 6.39063 18.5859C6.39063 18.3047 6.42708 18.0911 6.5 17.9453H7.84375ZM10.6953 17.1484C9.86719 17.1484 9.1224 16.987 8.46094 16.6641C7.79948 16.3359 7.28906 15.8828 6.92969 15.3047C6.57031 14.7214 6.39063 14.0573 6.39063 13.3125C6.39063 12.1615 6.78906 11.2318 7.58594 10.5234C8.38281 9.8099 9.44271 9.45312 10.7656 9.45312H10.8672C11.6901 9.45312 12.4297 9.61198 13.0859 9.92969C13.737 10.2422 14.2448 10.6927 14.6094 11.2812C14.974 11.8646 15.1563 12.5365 15.1563 13.2969C15.1563 14.4427 14.7578 15.3724 13.9609 16.0859C13.1641 16.7943 12.1094 17.1484 10.7969 17.1484H10.6953ZM10.8672 15.6953C11.8047 15.6953 12.5573 15.4792 13.125 15.0469C13.6927 14.6094 13.9766 14.026 13.9766 13.2969C13.9766 12.5625 13.6901 11.9792 13.1172 11.5469C12.5391 11.1146 11.7318 10.8984 10.6953 10.8984C9.76823 10.8984 9.01823 11.1198 8.44531 11.5625C7.86719 12 7.57813 12.5833 7.57813 13.3125C7.57813 14.026 7.86198 14.6016 8.42969 15.0391C8.9974 15.4766 9.8099 15.6953 10.8672 15.6953ZM15 6.07031V7.51562H3V6.07031H15ZM15 2.17969V3.625H3V2.17969H15Z" fill="#2B7278"/>
</svg>
