<svg width="31" height="8" viewBox="0 0 31 8" fill="none" xmlns="http://www.w3.org/2000/svg">
<path d="M23.1964 0.0310078C23.4107 -0.0210729 23.6429 -0.000237046 23.8214 0.0830884L30.6786 3.72892C30.7857 3.79143 30.8572 3.87475 30.8572 3.96851C30.8572 4.06226 30.7857 4.15601 30.6786 4.2185L23.8214 7.91641C23.6429 7.99974 23.4107 8.02057 23.1964 7.96849C23 7.91641 22.8572 7.80182 22.8572 7.66642V5.33309L0.571437 5.33309C0.25 5.33309 0 5.18725 0 4.99975L0 2.99975C0 2.81225 0.25 2.66642 0.571437 2.66642L22.8572 2.66642V0.333083C22.8572 0.197659 22.9822 0.0830885 23.1964 0.0310078Z" fill="#272822"/>
</svg>
